# xmcd CD database file
#
# Track frame offsets:
#	150
#	13662
#	29481
#	45007
#	63412
#	77424
#	88170
#	101892
#	114222
#	128999
#	143917
#
# Disc length: 2145 seconds
#
# Revision: 0
# Processed by: cddbd v1.5.2PL0 Copyright (c) Steve Scherf et al.
# Submitted via: CDex 1.51
#
DISCID=87085f0b
DTITLE=Chris Janson - Buy Me A Boat
DYEAR=2015
DGENRE=Country
TTITLE0=Buy Me A Boat
TTITLE1=Power Of Positive Drinkin
TTITLE2=Under The Sun
TTITLE3=Holdin' Her
TTITLE4=Messin' With Jesus (feat Tim McGraw)
TTITLE5=Right In The Middle
TTITLE6=Save A Little Sugar
TTITLE7=Back In My Drinkin' Days
TTITLE8=Where You Come In
TTITLE9=Yeah It Is
TTITLE10=White Trash
EXTD=YEAR: 2015
EXTT0=
EXTT1=
EXTT2=
EXTT3=
EXTT4=
EXTT5=
EXTT6=
EXTT7=
EXTT8=
EXTT9=
EXTT10=
PLAYORDER=
